<svg version="1.2" xmlns="http://www.w3.org/2000/svg" viewBox="0 0 308 541" width="308" height="541"><defs><clipPath clipPathUnits="userSpaceOnUse" id="cp1"><path d="m234 0.64h74v74h-74z"/></clipPath></defs><style>.a{fill:#33a777}.b{fill:#12182b}</style><g clip-path="url(#cp1)"><path fill-rule="evenodd" class="a" d="m288.5 37.6l18.9 11-8.7 15.1-19-10.9v21.8h-17.5v-21.8l-18.9 10.9-8.7-15.1 18.9-11-18.9-10.9 8.7-15.1 18.9 10.9v-21.9h17.5v21.9l19-10.9 8.7 15.1z"/></g><path fill-rule="evenodd" class="b" d="m22.5 496.2c0-0.2 0.3-0.4 0.5-0.4 0.3 0 0.5 0.2 0.6 0.4 0 0 1 3.3 2 6.9 1.7 5.8 6.2 10.2 11.9 11.9 3.6 1.1 7 2.1 7 2.1 0.2 0.1 0.4 0.3 0.4 0.5 0 0.3-0.2 0.5-0.4 0.6 0 0-3.4 1-7 2.1-5.7 1.7-10.2 6.1-11.9 11.9-1 3.6-2 6.9-2 6.9-0.1 0.2-0.3 0.4-0.6 0.4-0.2 0-0.5-0.2-0.5-0.4 0 0-1-3.3-2.1-6.9-1.7-5.8-6.2-10.2-11.9-11.9-3.6-1.1-6.9-2.1-6.9-2.1-0.3-0.1-0.5-0.3-0.5-0.6 0-0.2 0.2-0.4 0.5-0.5 0 0 3.3-1 6.9-2.1 5.7-1.7 10.2-6.1 11.9-11.9 1.1-3.6 2.1-6.9 2.1-6.9z"/></svg>